<?xml version="1.0" encoding="UTF-8"?>
<svg width="57px" height="60px" viewBox="0 0 57 60" version="1.1" xmlns="http://www.w3.org/2000/svg" xmlns:xlink="http://www.w3.org/1999/xlink">
    <!-- Generator: Sketch 3.8.2 (29753) - http://www.bohemiancoding.com/sketch -->
    <title>beer</title>
    <desc>Created with Sketch.</desc>
    <defs></defs>
    <g id="Page-1" stroke="none" stroke-width="1" fill="none" fill-rule="evenodd">
        <g id="beer" fill="#000000">
            <path d="M56,23 L44,23 L44,17.858 C45.7658485,17.4062279 47.0010562,15.815223 47.0010562,13.9925 C47.0010562,12.169777 45.7658485,10.5787721 44,10.127 L44,10 C43.9987028,7.77347408 42.5253125,5.81607695 40.3860444,5.19886448 C38.2467762,4.58165202 35.9571451,5.45335838 34.77,7.337 C33.2652219,5.18509327 30.7824113,3.93019919 28.1573603,3.99475457 C25.5323094,4.05930994 23.1141835,5.43472809 21.717,7.658 C20.4416958,6.23984961 18.4706901,5.67073562 16.6357343,6.19082037 C14.8007784,6.71090512 13.4215211,8.22958999 13.08,10.106 C11.1018313,10.570688 9.78639725,12.4446919 10.0216248,14.4630463 C10.2568523,16.4814006 11.9679864,18.0026755 14,18 L14,52 L12,52 L12,60 L46,60 L46,52 L44,52 L44,45 L56,45 C56.5522847,45 57,44.5522847 57,44 L57,24 C57,23.4477153 56.5522847,23 56,23 L56,23 Z M44,29 L51,29 L51,39 L44,39 L44,29 Z M12,14 C12,12.8954305 12.8954305,12 14,12 L15,12 L15,11 C15,9.34314575 16.3431458,8 18,8 C19.6568542,8 21,9.34314575 21,11 L23,11 L23,10 C23,8.348 25.586,6 28,6 C32.489,6 34,9.434 34,11 L36,11 L36,10 C36,8.34314575 37.3431458,7 39,7 C40.6568542,7 42,8.34314575 42,10 L42,12 L43,12 C44.1045695,12 45,12.8954305 45,14 C45,15.1045695 44.1045695,16 43,16 L14,16 C12.8954305,16 12,15.1045695 12,14 L12,14 Z M42,18 L42,21 L37,21 L37,27 C37.0008021,27.5496866 36.7753285,28.0754723 36.3765601,28.4538104 C35.9777918,28.8321485 35.4408851,29.0296837 34.892,29 C33.8180454,28.9684082 32.9719862,28.0740539 33,27 L33,25 C33,22.790861 31.209139,21 29,21 C26.790861,21 25,22.790861 25,25 L25,32 C25.0680059,32.5484768 24.8792695,33.0976666 24.488468,33.488468 C24.0976666,33.8792695 23.5484768,34.0680059 23,34 C21.9071811,33.972134 21.027866,33.0928189 21,32 L21,21 L16,21 L16,18 L42,18 Z M44,58 L14,58 L14,54 L44,54 L44,58 Z M16,52 L16,23 L19,23 L19,32 C19.0290744,34.1969833 20.8030167,35.9709256 23,36 C24.0789282,36.0629222 25.1333145,35.6617419 25.8975282,34.8975282 C26.6617419,34.1333145 27.0629222,33.0789282 27,32 L27,25 C27,23.8954305 27.8954305,23 29,23 C30.1045695,23 31,23.8954305 31,25 L31,27 C30.973841,29.1368228 32.6518307,30.9069758 34.787,30.995 C35.8833971,31.0534661 36.9556248,30.6586851 37.7523351,29.9032002 C38.5490455,29.1477153 39.0001853,28.0979548 39,27 L39,23 L42,23 L42,52 L16,52 Z M55,43 L44,43 L44,41 L52,41 C52.5522847,41 53,40.5522847 53,40 L53,28 C53,27.4477153 52.5522847,27 52,27 L44,27 L44,25 L55,25 L55,43 Z" id="Shape"></path>
            <polygon id="Shape" points="38 47 35 47 35 49 40 49 40 40 38 40"></polygon>
            <rect id="Rectangle-path" x="31" y="47" width="2" height="2"></rect>
            <path d="M9,0 C6.790861,-2.22044605e-16 5,1.790861 5,4 C5,6.209139 6.790861,8 9,8 C11.209139,8 13,6.209139 13,4 C13,2.93913404 12.5785726,1.92171839 11.8284271,1.17157288 C11.0782816,0.421427361 10.060866,0 9,0 L9,0 Z M9,6 C7.8954305,6 7,5.1045695 7,4 C7,2.8954305 7.8954305,2 9,2 C10.1045695,2 11,2.8954305 11,4 C11,4.53043298 10.7892863,5.03914081 10.4142136,5.41421356 C10.0391408,5.78928632 9.53043298,6 9,6 L9,6 Z" id="Shape"></path>
            <path d="M46,4 C46,6.209139 47.790861,8 50,8 C52.209139,8 54,6.209139 54,4 C54,1.790861 52.209139,0 50,0 C47.790861,-2.22044605e-16 46,1.790861 46,4 L46,4 Z M52,4 C52,5.1045695 51.1045695,6 50,6 C48.8954305,6 48,5.1045695 48,4 C48,2.8954305 48.8954305,2 50,2 C51.1045695,2 52,2.8954305 52,4 L52,4 Z" id="Shape"></path>
            <path d="M5,19 C2.23857625,19 4.4408921e-16,21.2385763 0,24 C-4.4408921e-16,26.7614237 2.23857625,29 5,29 C7.76142375,29 10,26.7614237 10,24 C9.99669388,21.2399468 7.76005315,19.0033061 5,19 L5,19 Z M5,27 C3.34314575,27 2,25.6568542 2,24 C2,22.3431458 3.34314575,21 5,21 C6.65685425,21 8,22.3431458 8,24 C8,25.6568542 6.65685425,27 5,27 L5,27 Z" id="Shape"></path>
        </g>
    </g>
</svg>