<?xml version="1.0" encoding="UTF-8"?>
<svg width="24px" height="24px" viewBox="0 0 24 24" version="1.1" xmlns="http://www.w3.org/2000/svg" xmlns:xlink="http://www.w3.org/1999/xlink">
    <!-- Generator: Sketch 53.2 (72643) - https://sketchapp.com -->
    <title>clock</title>
    <desc>Created with Sketch.</desc>
    <g id="Page-1" stroke="none" stroke-width="1" fill="none" fill-rule="evenodd">
        <g id="clock" transform="translate(3.000000, 3.000000)" fill="#AAAAAA" fill-rule="nonzero">
            <path d="M9,0 C13.9682769,0.00551423735 17.9944858,4.03172311 18,9 C18,13.9705627 13.9705627,18 9,18 C4.02943727,18 0,13.9705627 0,9 C0,4.02943727 4.02943727,-1.39019231e-15 9,0 Z M9,16.826087 C13.3202358,16.8212801 16.8212801,13.3202358 16.826087,9 C16.826087,4.67777152 13.3222285,1.17391304 9,1.17391304 C4.67777152,1.17391304 1.17391304,4.67777152 1.17391304,9 C1.17391304,13.3222285 4.67777152,16.826087 9,16.826087 Z M9,4.59782609 C9.32413222,4.59791033 9.58687227,4.86065039 9.58695652,5.18478261 L9.58695652,9 C9.5869064,9.15565715 9.52505409,9.30492556 9.41499391,9.41499783 L5.94216783,12.8878239 C5.79400126,13.0365721 5.57766227,13.0948429 5.3748299,13.040636 C5.17199752,12.9864292 5.01357083,12.8280025 4.95936399,12.6251701 C4.90515715,12.4223377 4.96342792,12.2059987 5.11217609,12.0578322 L8.41304348,8.75696478 L8.41304348,5.18478261 C8.41312773,4.86065039 8.67586778,4.59791033 9,4.59782609 Z"></path>
        </g>
    </g>
</svg>