<?xml version="1.0" encoding="UTF-8"?>
<svg width="24px" height="24px" viewBox="0 0 24 24" version="1.1" xmlns="http://www.w3.org/2000/svg" xmlns:xlink="http://www.w3.org/1999/xlink">
    <!-- Generator: Sketch 53.2 (72643) - https://sketchapp.com -->
    <title>location</title>
    <desc>Created with Sketch.</desc>
    <g id="Page-1" stroke="none" stroke-width="1" fill="none" fill-rule="evenodd">
        <g id="location" transform="translate(6.000000, 3.000000)" fill="#AAAAAA" fill-rule="nonzero">
            <path d="M12.1275957,6.11335394 C12.1275957,9.03436897 7.76273078,14.2152332 6.77213154,15.3535575 L6.77213154,16.592659 L8.22389649,16.592659 C8.54461157,16.592659 8.80460249,16.8541201 8.80460249,17.1766486 C8.80460249,17.4991772 8.54461157,17.7606383 8.22389649,17.7606383 L4.15895457,17.7606383 C3.8382395,17.7606383 3.57824857,17.4991772 3.57824857,17.1766486 C3.57824857,16.8541201 3.8382395,16.592659 4.15895457,16.592659 L5.61071953,16.592659 L5.61071953,15.3535614 C4.62012028,14.2152371 0.255255319,9.03437288 0.255255319,6.11335394 C0.255255319,2.81635928 2.91296925,0.143617021 6.19142553,0.143617021 C9.4698818,0.143617021 12.1275957,2.81635928 12.1275957,6.11335394 Z M6.19142553,1.31159633 C3.55562696,1.31457438 1.41962861,3.46265097 1.4166673,6.11335394 C1.4166673,8.17157486 4.54155465,12.2914389 6.19142553,14.2422524 C7.84092091,12.2910613 10.9661838,8.17005259 10.9661838,6.11335394 C10.9632225,3.46265097 8.82722409,1.31457438 6.19142553,1.31159633 Z M8.96584519,6.24299963 C8.96423009,7.78329195 7.72305694,9.03157054 6.19142553,9.03330222 C4.65918105,9.03330222 3.41704151,7.7841679 3.41700588,6.24325921 C3.41697025,4.70235049 4.65905202,3.45315807 6.19129651,3.4530864 C7.72354095,3.45301473 8.9657383,4.70209094 8.96584519,6.24299963 Z M4.57841784,6.24299963 C4.57933309,7.13852651 5.30093413,7.86429502 6.19142553,7.86532289 C7.08223986,7.86532289 7.80439757,7.13911075 7.80443318,6.24325917 C7.80446884,5.34740764 7.08236889,4.6211374 6.19155456,4.6210657 C5.30074023,4.62099405 4.57852477,5.34714809 4.57841784,6.24299963 Z"></path>
        </g>
    </g>
</svg>